<?xml version="1.0" encoding="utf-8"?>
<!-- Generator: Adobe Illustrator 22.1.0, SVG Export Plug-In . SVG Version: 6.00 Build 0)  -->
<svg version="1.1" id="Layer_1" xmlns="http://www.w3.org/2000/svg" xmlns:xlink="http://www.w3.org/1999/xlink" x="0px" y="0px"
	 viewBox="0 0 240 60" style="enable-background:new 0 0 240 60;" xml:space="preserve">
<style type="text/css">
	.st0{fill:#FFFFFF;}
</style>
<path class="st0" d="M13.2,19.2h7.2c2,0,4.7,0.2,6.5,1.4c2.5,1.7,3.2,4.5,3.2,7.1c0,3.8-1.2,6.6-4.7,7.9c-1.7,0.7-3.8,0.7-5,0.7
	h-7.2C13.2,36.3,13.2,19.2,13.2,19.2z M18,33h2c3.1,0,5.2-1.4,5.2-5.3c0-5.2-3.9-5.2-5.3-5.2H18V33z M35.3,31.3c0,0.6,0,2.9,2.3,2.9
	c1.2,0,1.9-0.6,2-1.7h4.1c-0.3,3-3.1,4.1-6.2,4.1c-4.1,0-6.4-2.1-6.4-6c0-4,1.9-6.6,6.3-6.6c3.3,0,4.8,1.3,5.6,3
	c0.5,1,0.7,2.2,0.7,4.2L35.3,31.3C35.3,31.2,35.3,31.3,35.3,31.3z M39.6,28.8c0-0.7-0.2-2.5-2.1-2.5s-2.1,1.9-2.2,2.5H39.6z
	 M53.1,28.6c0-1.1-0.4-2-1.6-2c-1.6,0-2,1.7-2,3.7c0,3.1,0.9,3.8,2,3.8c1.5,0,1.6-1.5,1.6-2.4h4.5c0,3-2.4,4.9-6,4.9
	c-3.8,0-6.7-2-6.7-6.3c0-4.7,3.3-6.3,6.6-6.3c1.3,0,3.4,0.2,4.8,1.7c1,1.1,1.1,2.2,1.2,2.9C57.5,28.6,53.1,28.6,53.1,28.6z
	 M59.1,19.3h4.5v3.2h-4.5V19.3z M59.2,24.4h4.4v11.9h-4.4V24.4z M69.7,32.4c0,0.2,0,0.7,0.2,1.1s0.5,0.7,1.3,0.7
	c1,0,1.3-0.7,1.3-1.2c0-0.8-0.7-1.1-1.7-1.3L68.4,31c-0.7-0.2-2.9-0.8-2.9-3.2c0-1.2,0.6-2.2,1.4-2.7c1-0.7,2.5-1,4.2-1
	c2.6,0,5.2,0.7,5.4,4h-4.2c0-0.4,0-0.8-0.2-1.2c-0.1-0.4-0.4-0.6-1.1-0.6s-1.3,0.3-1.3,1s0.5,0.9,1.2,1.1l3.2,0.9
	c1.1,0.3,2.8,0.9,2.8,3.3c0,4-4.7,4-5.7,4c-2.4,0-5.9-0.4-5.8-4.2C65.4,32.4,69.7,32.4,69.7,32.4z M78.5,19.3H83v3.2h-4.5V19.3z
	 M78.6,24.4H83v11.9h-4.4V24.4z M91.9,24c3.9,0,6.9,1.9,6.9,6.2c0,1.7-0.5,3.5-1.7,4.7c-1,1-2.5,1.7-4.9,1.7c-2.6,0-4.3-0.6-5.5-1.8
	c-1.4-1.3-1.7-3.1-1.7-4.5C84.9,26.7,87.1,24,91.9,24z M90.1,33.1c0.5,0.9,1.3,0.9,1.7,0.9c1.9,0,2.3-2.1,2.3-3.8
	c0-2.1-0.5-3.8-2.3-3.8c-2,0-2.3,2-2.3,3.8C89.5,31.1,89.6,32.3,90.1,33.1z M100.5,26.9l-0.1-2.5h4.4v1.8c0.5-0.9,1.5-2.1,3.9-2.1
	c4.3,0,4.3,3.3,4.3,4.9v7.2h-4.4v-6.8c0-0.8,0-2.5-1.8-2.5c-2,0-2,2.1-2,2.5v6.8h-4.4L100.5,26.9L100.5,26.9z M119.7,30.9
	c0,0.7,0.1,2.6,2.9,2.6c0.4,0,2.5,0,2.5-1.9c0-0.8-0.3-1.3-1.5-1.7l-4.2-1.1c-1.2-0.3-4.2-1.1-4.2-4.7c0-2.8,2.1-5.3,7.2-5.3
	c6.7,0,6.9,3.6,7,5.4h-4.8c0-0.5,0-2.4-2.2-2.4c-1.4,0-2.2,0.8-2.2,1.8c0,1.3,1,1.6,1.7,1.8l3.2,0.8c2.3,0.6,5,1.3,5,4.9
	c0,3.8-3.3,5.5-7.5,5.5c-1.8,0-4.6-0.3-6.2-2c-1.3-1.4-1.3-3.1-1.3-3.8L119.7,30.9L119.7,30.9z M135.9,24.4v1.7c0.4-0.6,1.4-2,3.9-2
	c2,0,5.1,1.1,5.1,6c0,4.6-2.6,6.4-5.3,6.4c-2.1,0-3-1.1-3.6-1.7v5.9h-4.4V26.4c0-1.3-0.1-1.4-0.1-1.9L135.9,24.4L135.9,24.4z
	 M138.1,33.9c1.9,0,2.2-2,2.2-3.8c0-1.1-0.2-3.4-2.1-3.4c-2.3,0-2.3,3-2.3,3.6C136,31.3,136.1,33.9,138.1,33.9z M154.1,36.3
	c-0.1-0.4-0.1-0.9-0.1-1.7c-0.5,0.8-1.5,1.9-3.9,1.9c-2.9,0-4.2-1.6-4.2-3.7c0-3.2,3-4.4,8.1-4.2c0-1.3-0.1-2.5-1.5-2.5
	c-0.8,0-1.6,0.4-1.6,1.8h-4.3c0-0.5,0-1.6,0.9-2.5s2.8-1.5,4.9-1.5c1.1,0,3.3,0.1,4.6,1.4c0.8,0.7,1,1.8,1,3.1V34
	c0,0.9,0,1.1,0.2,2.3H154.1z M150.3,32.4c0,0.9,0.6,1.6,1.6,1.6c0.5,0,1.3-0.2,1.7-1.1c0.4-0.8,0.4-1.7,0.3-2.2
	C152.1,30.7,150.3,30.7,150.3,32.4z M168,28.6c0-1.1-0.4-2-1.6-2c-1.6,0-2,1.7-2,3.7c0,3.1,0.9,3.8,2,3.8c1.5,0,1.6-1.5,1.6-2.4h4.5
	c0,3-2.4,4.9-6,4.9c-3.8,0-6.7-2-6.7-6.3c0-4.7,3.3-6.3,6.6-6.3c1.3,0,3.4,0.2,4.8,1.7c1,1.1,1.1,2.2,1.2,2.9
	C172.4,28.6,168,28.6,168,28.6z M177.4,31.3c0,0.6,0,2.9,2.3,2.9c1.2,0,1.9-0.6,2-1.7h4.1c-0.3,3-3.1,4.1-6.2,4.1
	c-4.1,0-6.4-2.1-6.4-6c0-4,1.9-6.6,6.3-6.6c3.3,0,4.8,1.3,5.6,3c0.5,1,0.7,2.2,0.7,4.2L177.4,31.3L177.4,31.3L177.4,31.3z
	 M181.7,28.8c0-0.7-0.2-2.5-2.1-2.5c-1.9,0-2.1,1.9-2.2,2.5H181.7z M193,22.3c0,2-1.6,3.5-3.6,3.5s-3.6-1.6-3.6-3.5s1.6-3.5,3.6-3.5
	S193,20.4,193,22.3z M186.7,22.3c0,1.6,1.1,2.8,2.7,2.8c1.5,0,2.7-1.2,2.7-2.8c0-1.6-1.1-2.8-2.7-2.8
	C187.9,19.5,186.7,20.8,186.7,22.3z M188.9,24.1h-0.8v-3.4c0.3-0.1,0.8-0.1,1.3-0.1c0.7,0,1,0.1,1.2,0.3c0.2,0.1,0.3,0.4,0.3,0.8
	s-0.3,0.7-0.7,0.8l0,0c0.3,0.1,0.5,0.4,0.6,0.9s0.2,0.7,0.3,0.9h-0.9c-0.1-0.1-0.2-0.4-0.3-0.9c-0.1-0.4-0.3-0.6-0.7-0.6h-0.4
	L188.9,24.1L188.9,24.1z M188.9,22.2h0.4c0.4,0,0.8-0.1,0.8-0.5c0-0.3-0.2-0.5-0.7-0.5c-0.2,0-0.4,0-0.4,0v1H188.9z"/>
</svg>
